<?xml version="1.0" encoding="UTF-8"?>
<svg width="16px" height="20px" viewBox="0 0 16 20" version="1.1" xmlns="http://www.w3.org/2000/svg" xmlns:xlink="http://www.w3.org/1999/xlink">
    <title>Group 3</title>
    <defs>
        <polygon id="path-1" points="0 0 16 0 16 20 0 20"></polygon>
    </defs>
    <g id="Sprint3/-Lo-Fi" stroke="none" stroke-width="1" fill="none" fill-rule="evenodd">
        <g id="암장-설정-전-최근-방문-기록O" transform="translate(-15.000000, -357.000000)">
            <g id="Group-3" transform="translate(15.000000, 357.000000)">
                <mask id="mask-2" fill="white">
                    <use xlink:href="#path-1"></use>
                </mask>
                <g id="Clip-2"></g>
                <path d="M8,9.30210925 C6.96575237,9.30210925 6.12749374,8.46905369 6.12749374,7.4416874 C6.12749374,6.4141144 6.96575237,5.58126555 8,5.58126555 C9.03424763,5.58126555 9.87250626,6.4141144 9.87250626,7.4416874 C9.87250626,8.46905369 9.03424763,9.30210925 8,9.30210925 M8.38594435,0.00785511448 C8.25798975,0.00268727601 8.12920293,0 8,0 C7.87079707,0 7.74201025,0.00268727601 7.61405565,0.00785511448 C0.987047937,0.274722293 -2.35683213,8.11660711 1.88917984,13.1790217 L7.36064314,19.7024875 C7.69332509,20.0991708 8.30667491,20.0991708 8.63935686,19.7024875 L14.1108202,13.1790217 C18.3568321,8.11660711 15.0129521,0.274722293 8.38594435,0.00785511448" id="Fill-1" fill="#E1E1E1" mask="url(#mask-2)"></path>
            </g>
        </g>
    </g>
</svg>