<?xml version="1.0" encoding="UTF-8"?>
<svg width="30px" height="30px" viewBox="0 0 30 30" version="1.1" xmlns="http://www.w3.org/2000/svg" xmlns:xlink="http://www.w3.org/1999/xlink">
    <title>Group 3</title>
    <defs>
        <polygon id="path-1" points="0 0 30 0 30 30 0 30"></polygon>
    </defs>
    <g id="Symbols" stroke="none" stroke-width="1" fill="none" fill-rule="evenodd">
        <g id="오르락/Location-history/최근방문/2/Light" transform="translate(-11.000000, -50.000000)">
            <g id="Group-3" transform="translate(11.000000, 50.000000)">
                <mask id="mask-2" fill="white">
                    <use xlink:href="#path-1"></use>
                </mask>
                <g id="Clip-2"></g>
                <path d="M15,14.3021093 C13.9657524,14.3021093 13.1274937,13.4690537 13.1274937,12.4416874 C13.1274937,11.4141144 13.9657524,10.5812656 15,10.5812656 C16.0342476,10.5812656 16.8725063,11.4141144 16.8725063,12.4416874 C16.8725063,13.4690537 16.0342476,14.3021093 15,14.3021093 M15.3859443,5.00785511 C15.2579898,5.00268728 15.1292029,5 15,5 C14.8707971,5 14.7420102,5.00268728 14.6140557,5.00785511 C7.98704794,5.27472229 4.64316787,13.1166071 8.88917984,18.1790217 L14.3606431,24.7024875 C14.6933251,25.0991708 15.3066749,25.0991708 15.6393569,24.7024875 L21.1108202,18.1790217 C25.3568321,13.1166071 22.0129521,5.27472229 15.3859443,5.00785511" id="Fill-1" fill="#E1E1E1" mask="url(#mask-2)"></path>
            </g>
        </g>
    </g>
</svg>