<?xml version="1.0" encoding="UTF-8"?>
<svg width="36px" height="36px" viewBox="0 0 36 36" version="1.1" xmlns="http://www.w3.org/2000/svg" xmlns:xlink="http://www.w3.org/1999/xlink">
    <title>Group Copy</title>
    <defs>
        <filter x="-33.3%" y="-33.3%" width="166.7%" height="166.7%" filterUnits="objectBoundingBox" id="filter-1">
            <feOffset dx="0" dy="0" in="SourceAlpha" result="shadowOffsetOuter1"></feOffset>
            <feGaussianBlur stdDeviation="2" in="shadowOffsetOuter1" result="shadowBlurOuter1"></feGaussianBlur>
            <feColorMatrix values="0 0 0 0 0   0 0 0 0 0   0 0 0 0 0  0 0 0 0.5 0" type="matrix" in="shadowBlurOuter1" result="shadowMatrixOuter1"></feColorMatrix>
            <feMerge>
                <feMergeNode in="shadowMatrixOuter1"></feMergeNode>
                <feMergeNode in="SourceGraphic"></feMergeNode>
            </feMerge>
        </filter>
        <polygon id="path-2" points="0 0 18 0 18 16 0 16"></polygon>
    </defs>
    <g id="Sprint3/Hi-Fi" stroke="none" stroke-width="1" fill="none" fill-rule="evenodd">
        <g id="Group-Copy" filter="url(#filter-1)" transform="translate(6.000000, 6.000000)">
            <g id="Group-Copy-3" fill="#FFFFFF">
                <rect id="Rectangle" x="0" y="0" width="24" height="24" rx="12"></rect>
            </g>
            <g id="Group-5" transform="translate(1.000000, 1.000000)">
                <g id="Group-3" transform="translate(2.000000, 3.000000)">
                    <mask id="mask-3" fill="white">
                        <use xlink:href="#path-2"></use>
                    </mask>
                    <g id="Clip-2"></g>
                    <path d="M17.684874,8.60024034 C17.2153679,7.80386312 16.3412134,7.43201151 15.5148486,7.59421163 C15.2656591,7.64315518 15.0215899,7.74104228 14.7948729,7.88817137 L13.4426784,8.76781232 L12.1419717,1.47716314 C11.9666003,0.493666365 11.065564,-0.152597407 10.1292543,0.0312393436 C9.66173951,0.123008501 9.27344762,0.405776879 9.02368917,0.786880013 C8.77421519,1.16902767 8.66341688,1.65115149 8.75117369,2.14282527 L9.2494105,4.93603966 L6.50733016,1.579676 C5.88791215,0.820454095 4.79941477,0.732863046 4.07602556,1.38405102 C3.59144297,1.81887268 3.39359901,2.47692468 3.50325947,3.09125577 C3.55716519,3.39342251 3.68488904,3.68499476 3.88956012,3.93463671 L5.83926899,6.32227619 L2.29799006,5.01378231 C1.39922946,4.68251804 0.414418824,5.17598243 0.098522749,6.11874265 C-0.00587514356,6.43016091 -0.024507465,6.75053226 0.0293982588,7.05284822 C0.139058715,7.6671793 0.548969787,8.20466305 1.15203118,8.4271473 L3.7434884,9.38378481 L1.43876981,9.83621421 C0.50260233,10.020051 -0.11453998,10.9656463 0.0606891803,11.9479494 C0.148445992,12.4396231 0.417832379,12.8469887 0.782087151,13.1075235 C1.14648416,13.3692522 1.60589177,13.4854931 2.07340659,13.3937239 L4.47839836,12.9214485 C4.57241336,13.1542288 4.68520291,13.3820849 4.81548693,13.6053153 C5.48753058,14.7425067 6.52041545,15.5038177 7.66296078,15.8256812 C8.89824102,16.1741056 10.2630941,16.0087719 11.4380682,15.2523851 L11.4653767,15.2341805 L13.6127873,13.8382448 L17.0061455,11.6322038 C17.9916673,10.9911626 18.2956159,9.63282988 17.684874,8.60024034" id="Fill-1" fill="#F23434" mask="url(#mask-3)"></path>
                </g>
                <rect id="Rectangle" x="0" y="0" width="22" height="22"></rect>
            </g>
        </g>
    </g>
</svg>