<?xml version="1.0" encoding="UTF-8"?>
<svg width="28px" height="28px" viewBox="0 0 28 28" version="1.1" xmlns="http://www.w3.org/2000/svg" xmlns:xlink="http://www.w3.org/1999/xlink">
    <title>Group 5</title>
    <defs>
        <polygon id="path-1" points="0 0 23.8461538 0 23.8461538 20 0 20"></polygon>
    </defs>
    <g id="Sprint3/Hi-Fi" stroke="none" stroke-width="1" fill="none" fill-rule="evenodd" opacity="0.3">
        <g id="손동작-2개-추가-시" transform="translate(-23.000000, -364.000000)">
            <g id="Group-4" transform="translate(16.000000, 356.000000)">
                <g id="Group-5" transform="translate(7.000000, 8.000000)">
                    <g id="Group-3" transform="translate(2.000000, 3.000000)">
                        <mask id="mask-2" fill="white">
                            <use xlink:href="#path-1"></use>
                        </mask>
                        <g id="Clip-2"></g>
                        <path d="M23.4286792,10.7503004 C22.806684,9.7548289 21.648616,9.29001439 20.5538593,9.49276454 C20.2237364,9.55394398 19.9003969,9.67630286 19.6000453,9.86021422 L17.8086766,10.9597654 L16.0855181,1.84645392 C15.8531885,0.617082956 14.6595079,-0.190746759 13.4190976,0.0390491796 C12.7997404,0.153760626 12.2853366,0.507221099 11.95446,0.983600016 C11.6239603,1.46128459 11.4771762,2.06393936 11.5934352,2.67853158 L12.2534925,6.17004957 L8.62082201,1.974595 C7.80022549,1.02556762 6.35819906,0.916078807 5.39986292,1.73006377 C4.75789454,2.27359085 4.49579356,3.09615586 4.64107023,3.86406972 C4.7124838,4.24177814 4.88169061,4.60624345 5.15283605,4.91829589 L7.7357837,7.90284524 L3.04434581,6.26722789 C1.85368006,5.85314755 0.549016391,6.46997804 0.13052159,7.64842831 C-0.00778330985,8.03770114 -0.0324671545,8.43816533 0.0389464113,8.81606027 C0.184223084,9.58397413 0.727267666,10.2558288 1.52619516,10.5339341 L4.95932225,11.729731 L1.90606257,12.2952678 C0.665840694,12.5250637 -0.151740999,13.7070579 0.0804001961,14.9349367 C0.19665922,15.5495289 0.553538622,16.0587358 1.03609836,16.3844044 C1.51884653,16.7115652 2.12746346,16.8568664 2.74682069,16.7421549 L5.93292091,16.1518106 C6.05747069,16.442786 6.20689274,16.7276061 6.37949123,17.0066441 C7.26980547,18.4281334 8.63815722,19.3797721 10.1517857,19.7821015 C11.788268,20.2176319 13.5964067,20.0109648 15.1529964,19.0654814 L15.1891742,19.0427256 L18.0340344,17.297806 L22.529509,14.5402547 C23.8351147,13.7389533 24.2377817,12.0410374 23.4286792,10.7503004" id="Fill-1" fill="#FFFFFF" mask="url(#mask-2)"></path>
                    </g>
                    <rect id="Rectangle" x="0" y="0" width="28" height="28"></rect>
                </g>
            </g>
        </g>
    </g>
</svg>