<?xml version="1.0" encoding="UTF-8"?>
<svg width="24px" height="26px" viewBox="0 0 24 26" version="1.1" xmlns="http://www.w3.org/2000/svg" xmlns:xlink="http://www.w3.org/1999/xlink">
    <title>Group 3</title>
    <defs>
        <polygon id="path-1" points="0 0 24 0 24 26 0 26"></polygon>
    </defs>
    <g id="Symbols" stroke="none" stroke-width="1" fill="none" fill-rule="evenodd">
        <g id="오르락/Tab-bar" transform="translate(-53.000000, -7.000000)">
            <g id="Group" transform="translate(47.000000, 7.000000)">
                <g id="Group-3" transform="translate(6.000000, 0.000000)">
                    <mask id="mask-2" fill="white">
                        <use xlink:href="#path-1"></use>
                    </mask>
                    <g id="Clip-2"></g>
                    <path d="M12.4066667,15.408023 C10.764,15.6823534 9.364,14.2575174 9.6336,12.5860283 C9.7968,11.5739091 10.5989333,10.7577014 11.5936,10.5919092 C13.236,10.3178501 14.636,11.7421434 14.3666667,13.4133612 C14.2034667,14.4254804 13.4013333,15.2419594 12.4066667,15.408023 M23.2416,8.28764203 L13.8888,0.674226078 C12.7845333,-0.224742026 11.2154667,-0.224742026 10.1112,0.674226078 L0.758666667,8.28764203 C0.2792,8.67783706 0,9.26882787 0,9.89346553 L0,22.9232118 C0,24.6223782 1.35386667,26 3.02373333,26 L20.9762667,26 C22.6464,26 24,24.6223782 24,22.9232118 L24,9.89346553 C24,9.26882787 23.7210667,8.67783706 23.2416,8.28764203" id="Fill-1" fill="#969696" mask="url(#mask-2)"></path>
                </g>
            </g>
        </g>
    </g>
</svg>