<?xml version="1.0" encoding="UTF-8"?>
<svg width="35px" height="34px" viewBox="0 0 35 34" version="1.1" xmlns="http://www.w3.org/2000/svg" xmlns:xlink="http://www.w3.org/1999/xlink">
    <title>내활동 Icon</title>
    <g id="Symbols" stroke="none" stroke-width="1" fill="none" fill-rule="evenodd">
        <g id="Group" transform="translate(1.000000, 0.000000)">
            <rect id="Rectangle" x="0" y="0" width="34" height="34"></rect>
            <path d="M14.6112,4.67422608 C15.7154667,3.77525797 17.2845333,3.77525797 18.3888,4.67422608 L27.7416,12.287642 C28.2210667,12.6778371 28.5,13.2688279 28.5,13.8934655 L28.5,26.9232118 C28.5,28.6223782 27.1464,30 25.4762667,30 L7.52373333,30 C5.85386667,30 4.5,28.6223782 4.5,26.9232118 L4.5,13.8934655 C4.5,13.2688279 4.7792,12.6778371 5.25866667,12.287642 Z M19.2665099,17.8554249 C19.5358432,16.1842071 18.1358432,14.7599138 16.4934432,15.0339729 C15.4987765,15.1997651 14.6966432,16.0159728 14.5334432,17.028092 C14.2638432,18.6995812 15.6638432,20.1244171 17.3065099,19.8500867 C18.3011765,19.6840232 19.1033099,18.8675441 19.2665099,17.8554249 Z" id="내활동-Icon" fill="#969696"></path>
        </g>
    </g>
</svg>