<?xml version="1.0" encoding="UTF-8"?>
<svg width="34px" height="34px" viewBox="0 0 34 34" version="1.1" xmlns="http://www.w3.org/2000/svg" xmlns:xlink="http://www.w3.org/1999/xlink">
    <title>기록 Icon</title>
    <g id="Symbols" stroke="none" stroke-width="1" fill="none" fill-rule="evenodd">
        <g id="Group">
            <rect id="Rectangle" x="0" y="0" width="34" height="34"></rect>
            <path d="M28.9444444,7 C30.6322222,7 32,8.36777778 32,10.0555556 L32,23.9444444 C32,25.6319444 30.6322222,27 28.9444444,27 L5.05555556,27 C3.36805556,27 2,25.6319444 2,23.9444444 L2,10.0555556 C2,8.36777778 3.36805556,7 5.05555556,7 Z M8.17583333,12 L7.89805556,12 C7.28444444,12 6.78694444,12.4972222 6.78694444,13.1111111 L6.78694444,20.8888889 C6.78694444,21.5025 7.28444444,22 7.89805556,22 L8.17583333,22 C8.78972222,22 9.28694444,21.5025 9.28694444,20.8888889 L9.28694444,13.1111111 C9.28694444,12.4972222 8.78972222,12 8.17583333,12 Z M18.1758333,11.8213889 L17.8980556,11.8213889 C17.2844444,11.8213889 16.7869444,12.3188889 16.7869444,12.9325 L16.7869444,20.7102778 C16.7869444,21.3238889 17.2844444,21.8213889 17.8980556,21.8213889 L18.1758333,21.8213889 C18.7897222,21.8213889 19.2869444,21.3238889 19.2869444,20.7102778 L19.2869444,12.9325 C19.2869444,12.3188889 18.7897222,11.8213889 18.1758333,11.8213889 Z M13.1758333,11.8213889 L12.8980556,11.8213889 C12.2844444,11.8213889 11.7869444,12.3188889 11.7869444,12.9325 L11.7869444,20.7102778 C11.7869444,21.3238889 12.2844444,21.8213889 12.8980556,21.8213889 L13.1758333,21.8213889 C13.7897222,21.8213889 14.2869444,21.3238889 14.2869444,20.7102778 L14.2869444,12.9325 C14.2869444,12.3188889 13.7897222,11.8213889 13.1758333,11.8213889 Z M22.8541667,12.4577778 C22.3838889,12.1772222 21.7869444,12.5161111 21.7869444,13.0638889 L21.7869444,20.5788889 C21.7869444,21.1266667 22.3838889,21.4655556 22.8541667,21.185 L29.1558333,17.4275 C29.615,17.1538889 29.615,16.4888889 29.1558333,16.2152778 Z" id="기록-Icon" fill="#969696"></path>
        </g>
    </g>
</svg>