<?xml version="1.0" encoding="UTF-8"?>
<svg width="30px" height="20px" viewBox="0 0 30 20" version="1.1" xmlns="http://www.w3.org/2000/svg" xmlns:xlink="http://www.w3.org/1999/xlink">
    <title>Group 3</title>
    <defs>
        <polygon id="path-1" points="0 0 30 0 30 20 0 20"></polygon>
    </defs>
    <g id="Symbols" stroke="none" stroke-width="1" fill="none" fill-rule="evenodd">
        <g id="오르락/Tab-bar" transform="translate(-180.000000, -10.000000)">
            <g id="Group-3" transform="translate(180.000000, 10.000000)">
                <mask id="mask-2" fill="white">
                    <use xlink:href="#path-1"></use>
                </mask>
                <g id="Clip-2"></g>
                <path d="M27.1558333,10.4275 L20.8541667,14.185 C20.3838889,14.4655556 19.7869444,14.1266667 19.7869444,13.5788889 L19.7869444,6.06388889 C19.7869444,5.51611111 20.3838889,5.17722222 20.8541667,5.45777778 L27.1558333,9.21527778 C27.615,9.48888889 27.615,10.1538889 27.1558333,10.4275 L27.1558333,10.4275 Z M17.2869444,13.7102778 C17.2869444,14.3238889 16.7897222,14.8213889 16.1758333,14.8213889 L15.8980556,14.8213889 C15.2844444,14.8213889 14.7869444,14.3238889 14.7869444,13.7102778 L14.7869444,5.9325 C14.7869444,5.31888889 15.2844444,4.82138889 15.8980556,4.82138889 L16.1758333,4.82138889 C16.7897222,4.82138889 17.2869444,5.31888889 17.2869444,5.9325 L17.2869444,13.7102778 Z M12.2869444,13.7102778 C12.2869444,14.3238889 11.7897222,14.8213889 11.1758333,14.8213889 L10.8980556,14.8213889 C10.2844444,14.8213889 9.78694444,14.3238889 9.78694444,13.7102778 L9.78694444,5.9325 C9.78694444,5.31888889 10.2844444,4.82138889 10.8980556,4.82138889 L11.1758333,4.82138889 C11.7897222,4.82138889 12.2869444,5.31888889 12.2869444,5.9325 L12.2869444,13.7102778 Z M7.28694444,13.8888889 C7.28694444,14.5025 6.78972222,15 6.17583333,15 L5.89805556,15 C5.28444444,15 4.78694444,14.5025 4.78694444,13.8888889 L4.78694444,6.11111111 C4.78694444,5.49722222 5.28444444,5 5.89805556,5 L6.17583333,5 C6.78972222,5 7.28694444,5.49722222 7.28694444,6.11111111 L7.28694444,13.8888889 Z M26.9444444,0 L3.05555556,0 C1.36805556,0 0,1.36777778 0,3.05555556 L0,16.9444444 C0,18.6319444 1.36805556,20 3.05555556,20 L26.9444444,20 C28.6322222,20 30,18.6319444 30,16.9444444 L30,3.05555556 C30,1.36777778 28.6322222,0 26.9444444,0 L26.9444444,0 Z" id="Fill-1" fill="#969696" mask="url(#mask-2)"></path>
            </g>
        </g>
    </g>
</svg>