<?xml version="1.0" encoding="UTF-8"?>
<svg width="12px" height="13px" viewBox="0 0 12 13" version="1.1" xmlns="http://www.w3.org/2000/svg" xmlns:xlink="http://www.w3.org/1999/xlink">
    <title>내활동 Icon Copy</title>
    <g id="Sprint3/Hi-Fi" stroke="none" stroke-width="1" fill="none" fill-rule="evenodd">
        <path d="M5.0556,0.337113039 C5.60773333,-0.112371013 6.39226667,-0.112371013 6.9444,0.337113039 L11.6208,4.14382102 C11.8605333,4.33891853 12,4.63441393 12,4.94673276 L12,11.4616059 C12,12.3111891 11.3232,13 10.4881333,13 L1.51186667,13 C0.676933333,13 0,12.3111891 0,11.4616059 L0,4.94673276 C0,4.63441393 0.1396,4.33891853 0.379333333,4.14382102 Z M5.95021802,5.00120558 L5.83062007,5.01391161 C5.41616627,5.08180203 5.08193651,5.4160318 5.01393497,5.8304856 C4.90159911,6.51494549 5.4849456,7.0984031 6.16940549,6.98606723 C6.58385929,6.9180657 6.91808906,6.58372482 6.98609059,6.16927102 C7.09831534,5.48492224 6.51496885,4.90168686 5.83062007,5.01391161 Z" id="내활동-Icon-Copy" fill="#F4F4F4"></path>
    </g>
</svg>