<?xml version="1.0" encoding="UTF-8"?>
<svg width="30px" height="19px" viewBox="0 0 30 19" version="1.1" xmlns="http://www.w3.org/2000/svg" xmlns:xlink="http://www.w3.org/1999/xlink">
    <title>Fill 1</title>
    <g id="Sprint3/Hi-Fi" stroke="none" stroke-width="1" fill="none" fill-rule="evenodd">
        <g id="목록형(Default)" transform="translate(-342.000000, -58.000000)" fill="#969696">
            <path d="M364.073529,68.4264706 L361.426471,68.4264706 L361.426471,71.0735294 C361.426471,71.5852059 361.011676,72 360.5,72 C359.988324,72 359.573529,71.5852059 359.573529,71.0735294 L359.573529,68.4264706 L356.926471,68.4264706 C356.414794,68.4264706 356,68.0116765 356,67.5 C356,66.9883235 356.414794,66.5735294 356.926471,66.5735294 L359.573529,66.5735294 L359.573529,63.9264706 C359.573529,63.4147941 359.988324,63 360.5,63 C361.011676,63 361.426471,63.4147941 361.426471,63.9264706 L361.426471,66.5735294 L364.073529,66.5735294 C364.585206,66.5735294 365,66.9883235 365,67.5 C365,68.0116765 364.585206,68.4264706 364.073529,68.4264706 M368.944444,58 L352.555556,58 C350.868056,58 349.5,59.2996528 349.5,60.9027778 L349.5,63.7525139 L344.591111,60.6436389 C343.483611,59.9422222 342,60.6964167 342,61.9609722 L342,73.0390278 C342,74.3035833 343.483611,75.0577778 344.591111,74.3563611 L349.5,71.2474861 L349.5,74.0972222 C349.5,75.7003472 350.868056,77 352.555556,77 L368.944444,77 C370.631944,77 372,75.7003472 372,74.0972222 L372,60.9027778 C372,59.2996528 370.631944,58 368.944444,58" id="Fill-1" transform="translate(357.000000, 67.500000) rotate(180.000000) translate(-357.000000, -67.500000) "></path>
        </g>
    </g>
</svg>