<?xml version="1.0" encoding="UTF-8"?>
<svg width="34px" height="34px" viewBox="0 0 34 34" version="1.1" xmlns="http://www.w3.org/2000/svg" xmlns:xlink="http://www.w3.org/1999/xlink">
    <title>루트파인딩 Icon</title>
    <g id="Symbols" stroke="none" stroke-width="1" fill="none" fill-rule="evenodd">
        <g id="Group">
            <rect id="Rectangle" x="0" y="0" width="34" height="34"></rect>
            <path d="M15.4054054,4 C22.2458919,4 27.8108108,9.56516216 27.8108108,16.4054054 C27.8108108,19.3007297 26.8110811,21.9652162 25.1421892,24.0782703 L29.5726216,28.5087027 C30.1425405,29.0786216 30.1425405,30.0024595 29.5726216,30.5723784 C29.2875405,30.8574595 28.9141622,31 28.5405405,31 C28.1669189,31 27.7935405,30.8574595 27.5084595,30.5723784 L23.0785135,26.1421892 C20.9654595,27.8110811 18.3007297,28.8108108 15.4054054,28.8108108 C8.56516216,28.8108108 3,23.2456486 3,16.4054054 C3,9.56516216 8.56516216,4 15.4054054,4 Z M15.4054054,6.91891892 C10.1744595,6.91891892 5.91891892,11.1744595 5.91891892,16.4054054 C5.91891892,21.6363514 10.1744595,25.8918919 15.4054054,25.8918919 C17.4953514,25.8918919 19.4284054,25.2110541 20.9978108,24.0617297 C21.7871351,23.4837838 22.4837838,22.7871351 23.0617297,21.9978108 C24.2110541,20.4284054 24.8918919,18.4953514 24.8918919,16.4054054 C24.8918919,11.1744595 20.6363514,6.91891892 15.4054054,6.91891892 Z M15.5000243,10 C19.0899503,10 22.0000243,12.9100741 22.0000243,16.5 C22.0000243,20.0899259 19.0899503,23 15.5000243,23 C11.9100984,23 9.00002432,20.0899259 9.00002432,16.5 C9.00002432,12.9100741 11.9100984,10 15.5000243,10 Z" id="루트파인딩-Icon" fill="#969696"></path>
        </g>
    </g>
</svg>