<?xml version="1.0" encoding="UTF-8"?>
<svg width="27px" height="27px" viewBox="0 0 27 27" version="1.1" xmlns="http://www.w3.org/2000/svg" xmlns:xlink="http://www.w3.org/1999/xlink">
    <title>Group 6</title>
    <defs>
        <polygon id="path-1" points="0 0 27 0 27 27 0 27"></polygon>
    </defs>
    <g id="Symbols" stroke="none" stroke-width="1" fill="none" fill-rule="evenodd">
        <g id="오르락/Tab-bar" transform="translate(-309.000000, -6.000000)">
            <g id="Group-6" transform="translate(309.000000, 6.000000)">
                <g id="Group-3">
                    <mask id="mask-2" fill="white">
                        <use xlink:href="#path-1"></use>
                    </mask>
                    <g id="Clip-2"></g>
                    <path d="M20.0617054,17.9978108 C19.4837595,18.7871351 18.7871108,19.4837838 17.9977865,20.0617297 C16.4283811,21.2110541 14.495327,21.8918919 12.4053811,21.8918919 C7.17443514,21.8918919 2.91889459,17.6363514 2.91889459,12.4054054 C2.91889459,7.17445946 7.17443514,2.91891892 12.4053811,2.91891892 C17.636327,2.91891892 21.8918676,7.17445946 21.8918676,12.4054054 C21.8918676,14.4953514 21.2110297,16.4284054 20.0617054,17.9978108 M26.5725973,24.5087027 L22.1421649,20.0782703 C23.8110568,17.9652162 24.8107865,15.3007297 24.8107865,12.4054054 C24.8107865,5.56516216 19.2458676,0 12.4053811,0 C5.56513784,0 -2.43243243e-05,5.56516216 -2.43243243e-05,12.4054054 C-2.43243243e-05,19.2456486 5.56513784,24.8108108 12.4053811,24.8108108 C15.3007054,24.8108108 17.9654351,23.8110811 20.0784892,22.1421892 L24.5084351,26.5723784 C24.7935162,26.8574595 25.1668946,27 25.5405162,27 C25.9141378,27 26.2875162,26.8574595 26.5725973,26.5723784 C27.1425162,26.0024595 27.1425162,25.0786216 26.5725973,24.5087027" id="Fill-1" fill="#969696" mask="url(#mask-2)"></path>
                </g>
                <path d="M19,12.5 C19,16.0899259 16.0899259,19 12.5,19 C8.91007407,19 6,16.0899259 6,12.5 C6,8.91007407 8.91007407,6 12.5,6 C16.0899259,6 19,8.91007407 19,12.5" id="Fill-4" fill="#969696"></path>
            </g>
        </g>
    </g>
</svg>